<svg width="250" height="250" viewBox="0 0 250 250" fill="none" xmlns="http://www.w3.org/2000/svg">
<path d="M89.263 171.159C89.2214 170.999 89.1813 170.837 89.1431 170.673C88.745 168.967 89.4731 168.088 90.5752 166.757C92.3044 164.668 94.9541 161.467 95.6175 152.218C96.7036 137.075 86.623 122.485 77.3717 124.644C70.6987 126.202 72.0907 132.555 73.3485 138.296C73.8345 140.514 74.3004 142.641 74.2734 144.365C74.2711 144.515 74.2688 144.666 74.2666 144.817C74.1772 150.897 74.0743 157.885 64.7316 165.076C55.1563 172.445 48.4377 183.256 48.8769 193.935C49.3161 204.615 53.0991 218.622 61.4748 225.909C69.8505 233.196 79.1186 237.707 91.3728 237.414C100.639 237.192 116.261 234.018 123.694 229.291C124.795 228.768 125.752 227.984 126.48 227.015C127.257 226.139 127.734 225.225 127.842 224.28C127.86 224.124 127.868 223.972 127.867 223.823C127.923 223.506 127.959 223.182 127.974 222.853C128.11 219.842 126.452 217.165 123.945 215.858C128.087 215.457 131.411 212.061 131.606 207.783C131.797 203.576 128.896 199.944 124.911 199.088C129.092 198.476 132.389 194.97 132.588 190.591C132.797 185.97 129.485 182.005 125.022 181.295L161.029 172.89C165.87 171.76 168.877 166.92 167.748 162.08C166.618 157.24 161.778 154.232 156.937 155.362L89.263 171.159Z" fill="white" stroke="black" stroke-width="5" stroke-linejoin="round"/>
</svg>
