<svg width="250" height="250" viewBox="0 0 250 250" fill="none" xmlns="http://www.w3.org/2000/svg">
<path fill="black" fill-rule="evenodd" clip-rule="evenodd" d="M92 99C98.6274 99 104 93.6274 104 87C104 80.3726 98.6274 75 92 75C85.3726 75 80 80.3726 80 87C80 93.6274 85.3726 99 92 99ZM92 94C95.866 94 99 90.866 99 87C99 83.134 95.866 80 92 80C88.134 80 85 83.134 85 87C85 90.866 88.134 94 92 94Z"/>
<path fill="black" fill-rule="evenodd" clip-rule="evenodd" d="M158 99C164.627 99 170 93.6274 170 87C170 80.3726 164.627 75 158 75C151.373 75 146 80.3726 146 87C146 93.6274 151.373 99 158 99ZM158 94C161.866 94 165 90.866 165 87C165 83.134 161.866 80 158 80C154.134 80 151 83.134 151 87C151 90.866 154.134 94 158 94Z"/>
<path fill="black" d="M182 125H99V130H182V125Z"/>
<path fill="black" d="M134 67H182V72H134V67Z"/>
<path fill="black" d="M116 59H68V64H116V59Z"/>
<path fill="black" fill-rule="evenodd" clip-rule="evenodd" d="M46.9005 187.46C33.1961 170.346 25 148.63 25 125C25 69.7715 69.7715 25 125 25C180.228 25 225 69.7715 225 125C225 178.456 183.056 222.115 130.284 224.863C130.048 226.308 129.323 227.556 128.417 228.598C127.487 229.809 126.288 230.798 124.911 231.479C120.838 234.033 114.809 236.058 108.794 237.475C102.671 238.918 96.2736 239.797 91.4326 239.913C78.4125 240.224 68.5603 235.387 59.8339 227.795C55.2098 223.772 51.9766 218.018 49.8446 212.033C47.705 206.028 46.6079 199.605 46.379 194.038C46.2881 191.828 46.4735 189.627 46.9005 187.46ZM48.6701 181.568C51.5399 174.464 56.8402 167.995 63.2069 163.095C67.5455 159.755 69.588 156.592 70.6122 153.696C71.6618 150.729 71.7216 147.855 71.7669 144.78L71.7737 144.325C71.7952 142.956 71.4143 141.149 70.9064 138.831L70.8554 138.599C70.2634 135.901 69.5207 132.516 69.9074 129.575C70.1169 127.982 70.6706 126.356 71.8664 124.984C73.07 123.603 74.7398 122.691 76.8034 122.21C82.9761 120.769 88.7094 124.986 92.4463 130.549C96.2898 136.27 98.6951 144.255 98.1111 152.397C97.7639 157.238 96.8867 160.637 95.7897 163.167C94.8825 165.259 93.8575 166.674 93.0228 167.714L156.369 152.927C162.554 151.483 168.738 155.327 170.182 161.512C171.626 167.697 167.782 173.881 161.597 175.325L131.924 182.251C134.01 184.441 135.233 187.444 135.085 190.704C134.925 194.239 133.186 197.326 130.58 199.319C132.877 201.443 134.256 204.526 134.103 207.896C133.929 211.738 131.804 215.029 128.729 216.857C129.352 217.765 129.829 218.779 130.127 219.864C180.21 217.201 220 175.747 220 125C220 72.5329 177.467 30 125 30C72.5329 30 30 72.5329 30 125C30 146.193 36.9395 165.765 48.6701 181.568ZM75.7906 137.761C75.1319 134.755 74.6048 132.204 74.8647 130.227C74.9841 129.32 75.255 128.706 75.6357 128.27C76.0085 127.842 76.6671 127.376 77.94 127.079C81.0186 126.36 84.9512 128.358 88.2959 133.337C91.534 138.157 93.626 145.039 93.1239 152.039C92.8077 156.448 92.0284 159.273 91.2024 161.178C90.3869 163.059 89.4806 164.158 88.6494 165.162L88.5659 165.263C88.0825 165.846 87.4294 166.632 87.0171 167.548C86.5059 168.683 86.3939 169.893 86.7085 171.241C86.7517 171.426 86.7968 171.609 86.8437 171.789C87.1855 173.101 88.5109 173.901 89.8313 173.593L157.506 157.796C161.002 156.98 164.497 159.152 165.313 162.648C166.129 166.144 163.957 169.64 160.461 170.456L124.454 178.861C123.29 179.133 122.481 180.19 122.524 181.385C122.566 182.579 123.449 183.577 124.629 183.764C127.85 184.277 130.242 187.142 130.09 190.477C129.947 193.637 127.567 196.172 124.549 196.614C123.352 196.789 122.452 197.796 122.412 199.005C122.372 200.214 123.203 201.278 124.385 201.532C127.196 202.136 129.243 204.702 129.108 207.669C128.971 210.687 126.625 213.086 123.704 213.369C122.602 213.476 121.702 214.294 121.49 215.381C121.279 216.467 121.808 217.563 122.789 218.075C124.466 218.949 125.567 220.736 125.476 222.739C125.466 222.961 125.442 223.178 125.405 223.389C125.379 223.538 125.366 223.689 125.367 223.84C125.367 223.886 125.365 223.938 125.358 223.996C125.326 224.279 125.163 224.732 124.61 225.357C124.565 225.407 124.523 225.459 124.482 225.512C123.995 226.16 123.355 226.684 122.621 227.033C122.529 227.077 122.439 227.127 122.352 227.182C118.994 229.318 113.557 231.216 107.647 232.609C101.785 233.99 95.7379 234.808 91.313 234.914C79.8248 235.189 71.1406 231.004 63.1157 224.023C59.364 220.759 56.5179 215.866 54.5546 210.355C52.5991 204.866 51.585 198.945 51.3748 193.833C50.9804 184.242 57.0669 174.13 66.2564 167.057C71.2605 163.206 73.9407 159.28 75.326 155.363C76.668 151.569 76.721 147.955 76.7646 144.972L76.7731 144.404C76.8047 142.386 76.286 140.02 75.831 137.945L75.7906 137.761Z"/>
</svg>
