<svg width="250" height="250" viewBox="0 0 250 250" fill="none" xmlns="http://www.w3.org/2000/svg">
<path fill-rule="evenodd" clip-rule="evenodd" d="M49.5016 126C49.5103 127.342 49.554 128.676 49.6319 130C50.2496 140.509 53.0168 150.44 57.5 159.36L57.5136 159.387C58.9941 162.33 60.6615 165.162 62.5 167.869C64.0483 170.148 65.7181 172.339 67.5 174.431C67.5315 174.468 67.5631 174.505 67.5947 174.542C67.63 174.583 67.6653 174.624 67.7007 174.665C69.2217 176.436 70.8233 178.136 72.5 179.759C74.1 181.307 75.7683 182.786 77.5 184.189C77.5745 184.249 77.649 184.309 77.7237 184.369C79.2671 185.61 80.8604 186.792 82.5 187.911C84.1224 189.018 85.7902 190.063 87.5 191.043C87.6202 191.112 87.7407 191.181 87.8613 191.249C89.3758 192.107 90.9228 192.913 92.5 193.666C94.135 194.447 95.8025 195.171 97.5 195.835C97.6118 195.879 97.7236 195.923 97.8356 195.966C99.367 196.556 100.922 197.099 102.5 197.591C104.143 198.103 105.811 198.561 107.5 198.962L107.665 199C109.258 199.375 110.87 199.698 112.5 199.97C116.566 200.647 120.742 201 125 201C129.258 201 133.434 200.647 137.5 199.97L137.59 199.955L137.707 199.935C139.323 199.661 140.921 199.336 142.5 198.962C144.189 198.561 145.857 198.103 147.5 197.591L147.535 197.58C149.216 197.055 150.872 196.472 152.5 195.835C154.197 195.171 155.865 194.447 157.5 193.666C157.572 193.632 157.643 193.598 157.715 193.563C157.759 193.542 157.804 193.52 157.849 193.499C159.431 192.733 160.982 191.914 162.5 191.043C164.21 190.063 165.878 189.018 167.5 187.911C167.572 187.862 167.644 187.812 167.716 187.763C169.359 186.634 170.955 185.441 172.5 184.189C174.232 182.786 175.9 181.307 177.5 179.759L177.512 179.747C179.258 178.057 180.923 176.282 182.5 174.431C184.282 172.339 185.952 170.148 187.5 167.869L187.602 167.718C189.406 165.049 191.044 162.258 192.5 159.36C196.983 150.44 199.75 140.509 200.368 130C200.446 128.675 200.49 127.342 200.498 125.999C200.499 125.833 200.5 125.667 200.5 125.5C200.5 125.333 200.499 125.167 200.498 125H49.5016C49.5005 125.167 49.5 125.333 49.5 125.5C49.5 125.667 49.5005 125.833 49.5016 126ZM57.5 130H54.6413C54.9877 135.499 55.9644 140.826 57.5 145.911V130ZM62.5 158.15C63.9847 160.986 65.6569 163.709 67.5 166.302V130H62.5V158.15ZM72.5 130V172.554C74.0814 174.317 75.7504 176.001 77.5 177.597V130H72.5ZM82.5 130V181.754C84.1139 182.976 85.782 184.129 87.5 185.21V130H82.5ZM92.5 130V188.078C94.1304 188.927 95.7981 189.713 97.5 190.435V130H92.5ZM102.5 130V192.333C104.141 192.885 105.808 193.379 107.5 193.811V130H102.5ZM112.5 130V194.895C114.148 195.19 115.815 195.428 117.5 195.606V130H112.5ZM122.5 130V195.956C123.33 195.985 124.163 196 125 196C125.837 196 126.67 195.985 127.5 195.956V130H122.5ZM132.5 130V195.606C134.185 195.428 135.852 195.19 137.5 194.895V130H132.5ZM142.5 130V193.811C144.192 193.379 145.859 192.885 147.5 192.333V130H142.5ZM152.5 130V190.435C154.202 189.713 155.87 188.927 157.5 188.078V130H152.5ZM162.5 130V185.21C164.218 184.129 165.886 182.976 167.5 181.754V130H162.5ZM172.5 130V177.597C174.25 176.001 175.919 174.317 177.5 172.554V130H172.5ZM182.5 130V166.302C184.343 163.709 186.015 160.986 187.5 158.15V130H182.5ZM192.5 130V145.911C194.036 140.826 195.012 135.499 195.359 130H192.5Z" fill="black"/>
<path fill-rule="evenodd" clip-rule="evenodd" d="M92 102C100.284 102 107 95.2843 107 87C107 78.7157 100.284 72 92 72C83.7157 72 77 78.7157 77 87C77 95.2843 83.7157 102 92 102ZM92 97C97.5229 97 102 92.5229 102 87C102 81.4772 97.5229 77 92 77C86.4772 77 82 81.4772 82 87C82 92.5229 86.4772 97 92 97Z" fill="black"/>
<path fill-rule="evenodd" clip-rule="evenodd" d="M158 102C166.284 102 173 95.2843 173 87C173 78.7157 166.284 72 158 72C149.716 72 143 78.7157 143 87C143 95.2843 149.716 102 158 102ZM158 97C163.523 97 168 92.5229 168 87C168 81.4772 163.523 77 158 77C152.477 77 148 81.4772 148 87C148 92.5229 152.477 97 158 97Z" fill="black"/>
<path fill-rule="evenodd" clip-rule="evenodd" d="M125 225C180.228 225 225 180.228 225 125C225 69.7715 180.228 25 125 25C69.7715 25 25 69.7715 25 125C25 180.228 69.7715 225 125 225ZM125 220C177.467 220 220 177.467 220 125C220 72.5329 177.467 30 125 30C72.5329 30 30 72.5329 30 125C30 177.467 72.5329 220 125 220Z" fill="black"/>
</svg>
