<svg width="250" height="250" viewBox="0 0 250 250" fill="none" xmlns="http://www.w3.org/2000/svg">
<path fill="white" fill-rule="evenodd" clip-rule="evenodd" d="M92 99C98.6274 99 104 93.6274 104 87C104 80.3726 98.6274 75 92 75C85.3726 75 80 80.3726 80 87C80 93.6274 85.3726 99 92 99ZM92 94C95.866 94 99 90.866 99 87C99 83.134 95.866 80 92 80C88.134 80 85 83.134 85 87C85 90.866 88.134 94 92 94Z"/>
<path fill="white" fill-rule="evenodd" clip-rule="evenodd" d="M158 99C164.627 99 170 93.6274 170 87C170 80.3726 164.627 75 158 75C151.373 75 146 80.3726 146 87C146 93.6274 151.373 99 158 99ZM158 94C161.866 94 165 90.866 165 87C165 83.134 161.866 80 158 80C154.134 80 151 83.134 151 87C151 90.866 154.134 94 158 94Z"/>
<path fill="white" fill-rule="evenodd" clip-rule="evenodd" d="M50 125H200V130H170V149C170 162.255 159.255 173 146 173C132.745 173 122 162.255 122 149V130H50V125ZM148.5 130H165V149C165 159.493 156.493 168 146 168C135.507 168 127 159.493 127 149V130H143.5V149.5H148.5V130Z"/>
<path fill="white" fill-rule="evenodd" clip-rule="evenodd" d="M125 225C180.228 225 225 180.228 225 125C225 69.7715 180.228 25 125 25C69.7715 25 25 69.7715 25 125C25 180.228 69.7715 225 125 225ZM125 220C177.467 220 220 177.467 220 125C220 72.5329 177.467 30 125 30C72.5329 30 30 72.5329 30 125C30 177.467 72.5329 220 125 220Z"/>
</svg>
