<svg width="250" height="250" viewBox="0 0 250 250" fill="none" xmlns="http://www.w3.org/2000/svg">
<path fill-rule="evenodd" clip-rule="evenodd" d="M92 99C98.6274 99 104 93.6274 104 87C104 80.3726 98.6274 75 92 75C85.3726 75 80 80.3726 80 87C80 93.6274 85.3726 99 92 99ZM92 94C95.866 94 99 90.866 99 87C99 83.134 95.866 80 92 80C88.134 80 85 83.134 85 87C85 90.866 88.134 94 92 94Z" fill="black"/>
<path fill-rule="evenodd" clip-rule="evenodd" d="M158 99C164.627 99 170 93.6274 170 87C170 80.3726 164.627 75 158 75C151.373 75 146 80.3726 146 87C146 93.6274 151.373 99 158 99ZM158 94C161.866 94 165 90.866 165 87C165 83.134 161.866 80 158 80C154.134 80 151 83.134 151 87C151 90.866 154.134 94 158 94Z" fill="black"/>
<path d="M99 125H182V130H99V125Z" fill="black"/>
<path d="M182 67H134V72H182V67Z" fill="black"/>
<path d="M68 59H116V64H68V59Z" fill="black"/>
<path fill-rule="evenodd" clip-rule="evenodd" d="M225 125C225 180.228 180.228 225 125 225C69.7715 225 25 180.228 25 125C25 69.7715 69.7715 25 125 25C180.228 25 225 69.7715 225 125ZM220 125C220 177.467 177.467 220 125 220C72.5329 220 30 177.467 30 125C30 72.5329 72.5329 30 125 30C177.467 30 220 72.5329 220 125Z" fill="black"/>
</svg>
