<svg width="250" height="250" viewBox="0 0 250 250" fill="none" xmlns="http://www.w3.org/2000/svg">
<path fill="white" d="M50 125H200V130H50V125Z"/>
<path fill="white" d="M104 84.5H80V89.5H104V84.5Z"/>
<path fill="white" d="M146 84.5H170V89.5H146V84.5Z"/>
<path fill="white" fill-rule="evenodd" clip-rule="evenodd" d="M68 71H116V84.5H134V71H182V103H134V89.5H116V103H68V71ZM73 76H111V98H73V76ZM177 76H139V98H177V76Z"/>
<path fill="white" fill-rule="evenodd" clip-rule="evenodd" d="M225 125C225 180.228 180.228 225 125 225C69.7715 225 25 180.228 25 125C25 69.7715 69.7715 25 125 25C180.228 25 225 69.7715 225 125ZM220 125C220 177.467 177.467 220 125 220C72.5329 220 30 177.467 30 125C30 72.5329 72.5329 30 125 30C177.467 30 220 72.5329 220 125Z"/>
</svg>